Coordinates
version=1
nRows=18
nColumns=22
inDegrees=yes

Units are S.I. units (second, meters, Newtons, ...)
If the header above contains a line with 'inDegrees', this indicates whether rotational values are in degrees (yes) or radians (no).

endheader
time	pelvis_tilt	pelvis_list	pelvis_rotation	pelvis_tx	pelvis_ty	pelvis_tz	hip_flexion_r	hip_adduction_r	hip_rotation_r	knee_angle_r	ankle_angle_r	subtalar_angle_r	hip_flexion_l	hip_adduction_l	hip_rotation_l	knee_angle_l	ankle_angle_l	subtalar_angle_l	lumbar_extension	lumbar_bending	lumbar_rotation
      1.49000000	      6.93702130	     -3.69836197	      3.24621984	      1.20527554	      0.94714038	     -0.07279439	     -7.17201890	      5.86279886	     -4.95760296	     -8.99409302	      8.77016775	     -2.35140410	     -4.34003698	     -5.64139694	    -11.67218042	    -16.59433066	     19.98143305	     -5.94285717	    -13.10041820	      3.37670508	     -8.94155627
      1.50000000	      7.02212395	     -3.74911229	      3.15067069	      1.20438775	      0.94731290	     -0.07190300	     -7.13318089	      5.96645263	     -4.84430837	     -9.10530856	      8.65659519	     -2.53706719	     -4.19621801	     -5.76387374	    -11.67739018	    -16.95705860	     20.03640227	     -6.00450772	    -13.20277880	      3.42866967	     -8.86553192
      1.51000000	      7.10738110	     -3.79858393	      3.06003116	      1.20346716	      0.94748112	     -0.07098532	     -7.08520010	      6.06900166	     -4.77105018	     -9.23411480	      8.57431680	     -2.68873228	     -4.04803083	     -5.88424284	    -11.64694931	    -17.32185921	     20.01994475	     -6.07919828	    -13.29745995	      3.48356069	     -8.79295157
      1.52000000	      7.21668449	     -3.83970923	      2.97445333	      1.20251412	      0.94768139	     -0.07004037	     -7.07087075	      6.16534950	     -4.72348399	     -9.34674198	      8.50017838	     -2.74900356	     -3.92011992	     -5.99843504	    -11.60782828	    -17.69206373	     19.95785209	     -6.13888465	    -13.41752576	      3.53168863	     -8.71880506
      1.53000000	      7.26332249	     -3.89786086	      2.88099704	      1.20150961	      0.94776069	     -0.06901757	     -6.99630982	      6.28431681	     -4.61241459	     -9.43499718	      8.36989373	     -2.88735120	     -3.68704309	     -6.13785454	    -11.56912992	    -18.13083362	     20.01251628	     -6.24464734	    -13.45653855	      3.59029089	     -8.61958269
      1.54000000	      7.31963345	     -3.95076433	      2.79325562	      1.20044548	      0.94784944	     -0.06799202	     -6.91785572	      6.39711875	     -4.52799928	     -9.54871063	      8.29433287	     -3.04656867	     -3.46237427	     -6.26621081	    -11.48593223	    -18.56123109	     20.00812180	     -6.37945769	    -13.50726479	      3.65376333	     -8.53155028
      1.55000000	      7.40698848	     -4.00356325	      2.71847466	      1.19935707	      0.94797252	     -0.06695930	     -6.90264590	      6.51548493	     -4.44351195	     -9.60192917	      8.20029824	     -3.14782278	     -3.25316707	     -6.40221302	    -11.41151074	    -19.01938801	     19.99811906	     -6.48972740	    -13.58714295	      3.72132734	     -8.43147264
      1.56000000	      7.48395641	     -4.06160727	      2.64862023	      1.19819471	      0.94806246	     -0.06591366	     -6.87204074	      6.64128581	     -4.34232112	     -9.65654865	      8.11497538	     -3.28217866	     -3.01378446	     -6.54170854	    -11.30353237	    -19.49874304	     20.00324350	     -6.63005160	    -13.65516377	      3.80248800	     -8.32899283
      1.57000000	      7.56357968	     -4.12343800	      2.58856994	      1.19694852	      0.94814114	     -0.06486006	     -6.85058364	      6.77456590	     -4.24286128	     -9.68841653	      8.03174137	     -3.43922862	     -2.75707845	     -6.68482858	    -11.16640422	    -19.99874251	     20.01503790	     -6.79215047	    -13.73053131	      3.89444916	     -8.22312666
      1.58000000	      7.65183104	     -4.18754596	      2.53999004	      1.19561081	      0.94821542	     -0.06381065	     -6.84886409	      6.91246177	     -4.15029447	     -9.68961379	      7.94895029	     -3.59289422	     -2.48603951	     -6.83005830	    -11.00102383	    -20.52301528	     20.01937367	     -6.95935668	    -13.82308018	      3.99788340	     -8.11153334
      1.59000000	      7.74344890	     -4.25529365	      2.50424149	      1.19418575	      0.94827942	     -0.06275780	     -6.85897202	      7.05833014	     -4.06654119	     -9.66417161	      7.86084474	     -3.73586292	     -2.19305147	     -6.97922947	    -10.80876371	    -21.07700216	     20.01659809	     -7.12947637	    -13.92321393	      4.11051277	     -7.99388994
      1.60000000	      7.80607145	     -4.33102761	      2.47388818	      1.19261598	      0.94827765	     -0.06170197	     -6.81632266	      7.21046426	     -3.99453983	     -9.66145557	      7.77212428	     -3.93752831	     -1.83345042	     -7.13207803	    -10.56694624	    -21.67123910	     20.02418499	     -7.37917513	    -14.00454803	      4.23962487	     -7.85585862
      1.61000000	      7.89674498	     -4.40949252	      2.46672305	      1.19095123	      0.94830124	     -0.06066153	     -6.82465154	      7.37255515	     -3.92095657	     -9.60704163	      7.64801296	     -4.05566741	     -1.46829321	     -7.29258725	    -10.31389108	    -22.31056149	     20.01512707	     -7.55429283	    -14.12590783	      4.38044409	     -7.73791867
      1.62000000	      7.97978118	     -4.48939409	      2.47748874	      1.18919457	      0.94830012	     -0.05963876	     -6.83927611	      7.53787410	     -3.87342392	     -9.50987484	      7.53152030	     -4.15450121	     -1.05757511	     -7.45703786	    -10.04993402	    -22.99700327	     19.97221642	     -7.72612921	    -14.24265437	      4.52728560	     -7.60135573
      1.63000000	      8.02588753	     -4.57902750	      2.49050725	      1.18723476	      0.94822566	     -0.05863713	     -6.76818399	      7.70866924	     -3.83157889	     -9.47522846	      7.39848812	     -4.28614551	     -0.56657193	     -7.61896917	     -9.72935280	    -23.72319282	     19.94870513	     -7.95762232	    -14.34409107	      4.69491810	     -7.45081471
      1.64000000	      8.09094757	     -4.66373044	      2.52448168	      1.18519362	      0.94817094	     -0.05767986	     -6.73490809	      7.87568318	     -3.80587930	     -9.39661472	      7.27191795	     -4.39058946	     -0.06934071	     -7.77712234	     -9.40806079	    -24.47691350	     19.88278823	     -8.15840156	    -14.46925007	      4.86402894	     -7.29495333
      1.65000000	      8.14624525	     -4.74837363	      2.57388488	      1.18302779	      0.94808793	     -0.05677105	     -6.68456225	      8.04109134	     -3.79783422	     -9.31279177	      7.14790822	     -4.48921777	      0.46611399	     -7.93103499	     -9.07398156	    -25.25333296	     19.80031259	     -8.35288995	    -14.59450082	      5.04174543	     -7.12662594
      1.66000000	      8.20598683	     -4.83030387	      2.64372612	      1.18075019	      0.94799743	     -0.05591969	     -6.63811722	      8.20294362	     -3.80234249	     -9.21577185	      7.02142708	     -4.57573296	      1.01742553	     -8.08087795	     -8.73310867	    -26.04011206	     19.69684085	     -8.51836209	    -14.73331185	      5.22554520	     -6.95613761
